<svg xmlns="http://www.w3.org/2000/svg" width="400" height="167.952" viewBox="0 0 400 167.952"><path d="M170.165 10c-3.777 0-6.486 1.144-8.374 3.14-1.889 1.997-2.966 4.815-2.966 7.852v10.817h-1.047c-3.283 0-5.856.99-7.503 2.792-1.646 1.802-2.268 4.48-2.268 7.502 0 3.028.618 5.397 2.268 7.153 1.65 1.756 4.226 2.792 7.503 2.792h1.047v30.009c0 9.115 2.218 18.114 6.804 24.775 4.586 6.66 11.628 10.992 21.635 10.992 5.983 0 11.166-4.8 11.166-10.818 0-4.943-3.28-9.105-8.375-10.468-2.902-.781-4.872-2.045-6.28-4.362-1.41-2.316-2.269-5.61-2.269-9.944V52.048h6.455c3.277 0 5.678-1.036 7.328-2.792 1.65-1.756 2.443-4.125 2.443-7.153 0-3.022-.796-5.7-2.443-7.502-1.646-1.803-4.045-2.792-7.328-2.792h-6.455V20.992c0-3.037-.906-5.855-2.792-7.852-1.885-1.996-4.768-3.14-8.549-3.14zm85.492 19.89c-10.867 0-18.389 3.638-25.299 10.468-.183-2.643-.672-5.037-2.268-6.804-1.796-1.988-4.72-3.315-8.026-3.315-3.78 0-6.488 1.323-8.374 3.315-1.886 1.992-2.792 4.636-2.792 7.676v102.94c0 3.049.865 5.685 2.792 7.677 1.927 1.992 4.946 3.14 8.723 3.14 3.777 0 6.488-1.145 8.375-3.14 1.887-1.995 2.966-4.633 2.966-7.677v-34.894c6.62 6.121 13.716 9.421 23.903 9.421 22.76 0 40.477-18.844 40.477-44.49 0-25.474-17.72-44.316-40.477-44.316zm87.585.174c-22.607 0-40.478 18.675-40.478 44.316 0 25.49 17.871 44.316 40.478 44.316 9.503 0 17.58-3.596 24.077-9.421v2.966c0 7.406-1.745 13.575-5.235 17.795-3.489 4.221-8.609 6.631-16.05 6.631-5.658 0-14.928-3.193-22.333-7.852-2.685-1.683-5.64-2.268-8.2-2.268-3.488 0-6.017 1.397-7.677 3.49-1.66 2.092-2.443 4.671-2.443 7.153 0 3.196.903 5.952 2.617 7.852 2.886 3.132 8.586 6.281 15.354 8.723 6.768 2.442 14.792 4.187 22.681 4.187 13.545 0 24.483-4.608 32.103-12.562 7.62-7.953 11.864-19.3 11.864-33.324V41.405c0-3.033-.906-5.857-2.792-7.851-1.885-1.994-4.768-2.966-8.549-2.966-5.792 0-9.498 4.343-9.945 9.945-6.692-6.576-15.364-10.469-25.472-10.469zM68.274 32.507c-24.663 0-42.223 17.378-42.223 42.048 0 8.382 2.895 16.476 6.63 21.983h-12.91c-3.283 0-5.856 1.166-7.503 2.966-1.646 1.8-2.268 4.306-2.268 7.328 0 3.028.618 5.394 2.268 7.153 1.65 1.76 4.225 2.966 7.502 2.966h57.925c24.677 0 42.222-17.733 42.222-42.396 0-8.386-3.035-16.487-6.63-21.984h11.516c3.278 0 5.854-.854 7.502-2.617 1.648-1.763 2.268-4.481 2.268-7.502 0-3.018-.624-5.526-2.268-7.328-1.645-1.802-4.22-2.617-7.502-2.617h-56.53zM252.69 51c11.567 0 20.936 9.966 20.936 23.205 0 13.416-9.374 23.204-20.936 23.204-11.54 0-20.937-10.28-20.937-23.204 0-12.733 9.392-23.205 20.937-23.205zm93.691 0c11.547 0 20.937 10.48 20.937 23.554 0 12.739-9.386 23.204-20.937 23.204-11.554 0-20.937-10.137-20.937-23.204 0-13.409 9.387-23.554 20.937-23.554zm-275.84 1.57h6.804c12.41 0 21.111 9.062 21.111 21.984 0 6.627-2.232 12.024-6.106 15.877-3.875 3.852-9.333 6.106-15.877 6.106h-6.805c-6.372 0-11.678-2.216-15.353-6.106-3.675-3.891-5.758-9.408-5.758-15.877 0-6.626 2.254-12.025 6.107-15.877 3.853-3.852 9.255-6.107 15.877-6.107z" fill="#fd5312"/></svg>
